<svg fill="none" height="144" viewBox="0 0 4464 144" width="4464" xmlns="http://www.w3.org/2000/svg" xmlns:xlink="http://www.w3.org/1999/xlink"><linearGradient id="a"><stop offset="0" stop-color="#2aabee"/><stop offset="1" stop-color="#229ed9"/></linearGradient><linearGradient id="b" gradientUnits="userSpaceOnUse" x1="1080" x2="1080" xlink:href="#a" y1="31.7861" y2="112.214"/><linearGradient id="c" gradientUnits="userSpaceOnUse" x1="1224" x2="1224" xlink:href="#a" y1="24.856" y2="119.144"/><linearGradient id="d" gradientUnits="userSpaceOnUse" x1="1368" x2="1368" xlink:href="#a" y1="19.1113" y2="124.889"/><linearGradient id="e" gradientUnits="userSpaceOnUse" x1="1512" x2="1512" xlink:href="#a" y1="14.4526" y2="129.547"/><linearGradient id="f" gradientUnits="userSpaceOnUse" x1="1656" x2="1656" xlink:href="#a" y1="10.7817" y2="133.218"/><linearGradient id="g" gradientUnits="userSpaceOnUse" x1="1800" x2="1800" xlink:href="#a" y1="8" y2="136"/><linearGradient id="h" gradientUnits="userSpaceOnUse" x1="1944" x2="1944" xlink:href="#a" y1="6.0083" y2="137.992"/><linearGradient id="i" gradientUnits="userSpaceOnUse" x1="2088" x2="2088" xlink:href="#a" y1="4.70801" y2="139.292"/><linearGradient id="j" gradientUnits="userSpaceOnUse" x1="2232" x2="2232" xlink:href="#a" y1="4" y2="140"/><linearGradient id="k" gradientUnits="userSpaceOnUse" x1="2376" x2="2376" xlink:href="#a" y1="3.78613" y2="140.214"/><linearGradient id="l" gradientUnits="userSpaceOnUse" x1="2520" x2="2520" xlink:href="#a" y1="3.96729" y2="140.033"/><linearGradient id="m" gradientUnits="userSpaceOnUse" x1="2664" x2="2664" xlink:href="#a" y1="4.44434" y2="139.555"/><linearGradient id="n" gradientUnits="userSpaceOnUse" x1="2808" x2="2808" xlink:href="#a" y1="5.11914" y2="138.88"/><linearGradient id="o" gradientUnits="userSpaceOnUse" x1="2952" x2="2952" xlink:href="#a" y1="5.89307" y2="138.107"/><linearGradient id="p" gradientUnits="userSpaceOnUse" x1="3096" x2="3096" xlink:href="#a" y1="6.6665" y2="137.333"/><linearGradient id="q" gradientUnits="userSpaceOnUse" x1="3240" x2="3240" xlink:href="#a" y1="7.3418" y2="136.659"/><linearGradient id="r" gradientUnits="userSpaceOnUse" x1="3384" x2="3384" xlink:href="#a" y1="7.81885" y2="136.181"/><linearGradient id="s" gradientUnits="userSpaceOnUse" x1="3528" x2="3528" xlink:href="#a" y1="8" y2="136"/><linearGradient id="t" gradientUnits="userSpaceOnUse" x1="3672" x2="3672" xlink:href="#a" y1="8" y2="136"/><linearGradient id="u" gradientUnits="userSpaceOnUse" x1="3816" x2="3816" xlink:href="#a" y1="8" y2="136"/><linearGradient id="v" gradientUnits="userSpaceOnUse" x1="3960" x2="3960" xlink:href="#a" y1="8" y2="136"/><linearGradient id="w" gradientUnits="userSpaceOnUse" x1="4104" x2="4104" xlink:href="#a" y1="8" y2="136"/><linearGradient id="x" gradientUnits="userSpaceOnUse" x1="4248" x2="4248" xlink:href="#a" y1="8" y2="136"/><linearGradient id="y" gradientUnits="userSpaceOnUse" x1="4392" x2="4392" xlink:href="#a" y1="8" y2="136"/><path d="m1080 31.7861c-10.66 0-20.9 4.2395-28.44 11.7783-7.53 7.5389-11.77 17.7746-11.77 28.4357s4.24 20.8969 11.77 28.4359c7.54 7.539 17.78 11.778 28.44 11.778s20.9-4.239 28.44-11.778c7.53-7.539 11.77-17.7748 11.77-28.4359s-4.24-20.8968-11.77-28.4357c-7.54-7.5388-17.78-11.7783-28.44-11.7783z" fill="url(#b)" opacity=".09"/><path d="m1224 24.856c-12.5 0-24.5 4.97-33.34 13.808-8.83 8.838-13.8 20.8377-13.8 33.336s4.97 24.498 13.8 33.336c8.84 8.838 20.84 13.808 33.34 13.808s24.5-4.97 33.34-13.808c8.83-8.838 13.8-20.8377 13.8-33.336s-4.97-24.498-13.8-33.336c-8.84-8.838-20.84-13.808-33.34-13.808z" fill="url(#c)" opacity=".45"/><path d="m1368 19.1113c-14.02 0-27.48 5.5757-37.4 15.4907-9.91 9.915-15.49 23.3769-15.49 37.3982 0 14.0214 5.58 27.4832 15.49 37.3978 9.92 9.915 23.38 15.491 37.4 15.491s27.48-5.576 37.4-15.491c9.91-9.9146 15.49-23.3764 15.49-37.3978 0-14.0213-5.58-27.4832-15.49-37.3982-9.92-9.915-23.38-15.4907-37.4-15.4907z" fill="url(#d)" opacity=".78"/><path d="m1512 14.4526c-15.26 0-29.9 6.0668-40.69 16.8551s-16.86 25.4359-16.86 40.6923c0 15.2563 6.07 29.904 16.86 40.692 10.79 10.789 25.43 16.855 40.69 16.855s29.9-6.066 40.69-16.855c10.79-10.788 16.86-25.4357 16.86-40.692 0-15.2564-6.07-29.904-16.86-40.6923s-25.43-16.8551-40.69-16.8551z" fill="url(#e)" opacity=".92"/><path clip-rule="evenodd" d="m1478.63 118.883c.31-2.305.56-4.338.71-5.96.08-.796-.02-1.817-.1-2.265-.07-.448-.23-1.086-.82-1.558-.68-.56-1.75-.678-2.23-.67-1.24.022-2.86.411-7.03 1.994.69.773 1.41 1.53 2.15 2.268 2.28 2.279 4.73 4.347 7.32 6.191z" fill="#fff" fill-rule="evenodd"/><path d="m1656 10.7817c-16.23 0-31.81 6.4538-43.29 17.9302-11.47 11.4765-17.93 27.0585-17.93 43.2879 0 16.2295 6.46 31.8112 17.93 43.2882 11.48 11.476 27.06 17.93 43.29 17.93s31.81-6.454 43.29-17.93c11.47-11.477 17.93-27.0587 17.93-43.2882 0-16.2294-6.46-31.8114-17.93-43.2879-11.48-11.4764-27.06-17.9302-43.29-17.9302z" fill="url(#f)" opacity=".98"/><path clip-rule="evenodd" d="m1628.36 126.624c1.35-8.306 2.54-16.422 3-21.19.08-.847-.03-1.933-.11-2.409s-.25-1.155-.87-1.658c-.73-.596-1.86-.721-2.37-.712-2.23.04-5.61 1.193-21.27 7.69 1.74 2.367 3.67 4.618 5.76 6.731.58-.357.92-.546 1.01-.567.38-.086.91-.195 1.27.124.36.317.32.92.28 1.081-.04.165-.32.54-.8 1.07 4.25 3.957 9 7.259 14.1 9.84z" fill="#fff" fill-rule="evenodd"/><path d="m1800 8c-16.97 0-33.26 6.747-45.25 18.745-12 11.998-18.75 28.288-18.75 45.255s6.75 33.257 18.75 45.255c11.99 11.998 28.28 18.745 45.25 18.745s33.26-6.747 45.25-18.745c12-11.998 18.75-28.288 18.75-45.255s-6.75-33.257-18.75-45.255c-11.99-11.998-28.28-18.745-45.25-18.745z" fill="url(#g)"/><path clip-rule="evenodd" d="m1780.44 132.937c2.19-12.424 5.03-29.864 5.8-37.9918.09-.886-.02-2.021-.1-2.519-.09-.498-.27-1.208-.91-1.733-.77-.623-1.95-.754-2.48-.745-2.41.043-6.1 1.327-23.88 8.72-3.1 1.2906-7.75 3.2698-13.94 5.9368 2.07 3.502 4.49 6.818 7.22 9.895 9.87-6.616 15.02-9.972 15.44-10.068.4-.09.95-.204 1.32.129.38.332.34.962.3 1.131-.21.921-7.88 8.127-13.05 12.937 6.98 6.563 15.3 11.423 24.28 14.308z" fill="#fff" fill-rule="evenodd"/><path d="m1944 6.0083c-17.49 0-34.29 6.957-46.66 19.3284s-19.33 29.1683-19.33 46.6634c0 17.495 6.96 34.2919 19.33 46.6629 12.37 12.372 29.17 19.329 46.66 19.329 17.5 0 34.29-6.957 46.66-19.329 12.37-12.371 19.33-29.1679 19.33-46.6629 0-17.4951-6.96-34.292-19.33-46.6634s-29.16-19.3284-46.66-19.3284z" fill="url(#h)"/><path clip-rule="evenodd" d="m1931.7 136.835c.66-1.054 1.22-2.577 1.62-4.713 2.19-11.688 6.49-37.0102 7.48-47.4451.09-.9136-.02-2.0839-.11-2.5974s-.27-1.2456-.94-1.7869c-.79-.6424-2.01-.7775-2.56-.7682-2.48.0443-6.29 1.3683-24.61 8.9913-5.18 2.1546-14.54 6.1695-28.07 12.0443 2.21 4.602 4.95 8.954 8.2 12.96.33-.205.67-.426 1.02-.663 17.97-12.133 27.25-18.2659 27.83-18.3979.41-.0928.98-.2103 1.37.133.39.3424.35.992.31 1.1662-.25 1.0615-10.11 10.2307-15.23 14.9827-1.59 1.485-2.73 2.538-2.96 2.778-.51.538-1.04 1.046-1.55 1.535-3.13 3.017-5.48 5.28.13 8.976 2.7 1.778 4.86 3.248 7.01 4.716.57.384 1.13.768 1.71 1.157 6.03 3.3 12.56 5.644 19.35 6.932z" fill="#fff" fill-rule="evenodd"/><path d="m2088 4.70801c-17.84 0-34.97 7.09409-47.58 19.70929-12.62 12.6151-19.71 29.7431-19.71 47.5829s7.09 34.9678 19.71 47.5828c12.61 12.615 29.74 19.709 47.58 19.709s34.97-7.094 47.58-19.709c12.62-12.615 19.71-29.743 19.71-47.5828s-7.09-34.9678-19.71-47.5829c-12.61-12.6152-29.74-19.70929-47.58-19.70929z" fill="url(#i)"/><path clip-rule="evenodd" d="m2029.74 105.674c3.08.934 6.55 1.823 8.52 1.865 2.18.047 4.61-.852 7.3-2.696 18.33-12.3724 27.79-18.6264 28.38-18.761.42-.0946 1-.2144 1.39.1357.4.3491.36 1.0115.32 1.1892-.26 1.0823-10.31 10.4323-15.53 15.2781-1.62 1.514-2.78 2.588-3.01 2.833-.53.548-1.07 1.066-1.59 1.564-3.19 3.077-5.58 5.385.14 9.153 2.75 1.814 4.95 3.313 7.15 4.809 2.39 1.629 4.78 3.255 7.86 5.279.79.516 1.54 1.053 2.28 1.575 2.79 1.987 5.29 3.772 8.38 3.487 1.8-.165 3.66-1.855 4.6-6.898 2.23-11.918 6.61-37.7394 7.63-48.38.08-.9315-.03-2.1249-.12-2.6485-.09-.5237-.27-1.2702-.95-1.8222-.81-.655-2.05-.7928-2.61-.7833-2.53.0452-6.42 1.3952-25.1 9.1685-6.55 2.7222-19.63 8.3569-39.25 16.903-.01.0042-.02.0085-.03.0127 1.2 3.0074 2.62 5.9278 4.24 8.7368z" fill="#fff" fill-rule="evenodd"/><path d="m2232 4c-18.03 0-35.34 7.1687-48.08 19.9166-12.75 12.7478-19.92 30.056-19.92 48.0834s7.17 35.336 19.92 48.083c12.74 12.748 30.05 19.917 48.08 19.917s35.34-7.169 48.08-19.917c12.75-12.747 19.92-30.0556 19.92-48.083s-7.17-35.3356-19.92-48.0834c-12.74-12.7479-30.05-19.9166-48.08-19.9166z" fill="url(#j)"/><path d="m2175.7 90.3589c19.83-8.636 33.05-14.3299 39.66-17.0808 18.88-7.855 22.81-9.2193 25.37-9.265.56-.0095 1.82.1297 2.63.7916.69.5578.88 1.3122.97 1.8413s.2 1.7351.11 2.6765c-1.02 10.7525-5.45 36.8455-7.7 48.8885-.96 5.096-2.83 6.805-4.65 6.971-3.95.364-6.95-2.609-10.77-5.116-5.99-3.923-9.37-6.365-15.18-10.193-6.71-4.424-2.36-6.857 1.47-10.8303 1-1.0402 18.4-16.8661 18.73-18.3016.05-.1795.09-.8489-.31-1.2016-.4-.3539-.99-.2327-1.41-.1371-.6.136-10.16 6.4557-28.68 18.9582-2.72 1.8634-5.17 2.7724-7.38 2.7244-2.42-.052-7.09-1.3729-10.57-2.5013-4.26-1.3844-7.64-2.1165-7.35-4.4678.16-1.224 1.84-2.4767 5.06-3.757z" fill="#fff"/><path d="m2376 3.78613c-18.08 0-35.45 7.19127-48.23 19.97927-12.79 12.788-19.98 30.1506-19.98 48.2347 0 18.0842 7.19 35.4469 19.98 48.2349 12.78 12.788 30.15 19.979 48.23 19.979s35.45-7.191 48.23-19.979c12.79-12.788 19.98-30.1507 19.98-48.2349 0-18.0841-7.19-35.4467-19.98-48.2347-12.78-12.788-30.15-19.97927-48.23-19.97927z" fill="url(#k)"/><path d="m2324.78 85.1664c19.88-8.6632 33.14-14.375 39.78-17.1345 18.94-7.8798 22.88-9.2483 25.44-9.2941.57-.0096 1.83.13 2.65.794.69.5596.88 1.3163.97 1.8471s.2 1.7405.11 2.6849c-1.02 10.7863-5.47 36.9612-7.73 49.0422-.95 5.112-2.83 6.826-4.66 6.993-3.96.365-6.97-2.617-10.8-5.132-6.01-3.936-9.4-6.385-15.23-10.225-6.73-4.438-2.37-6.8782 1.47-10.8644 1.01-1.0435 18.46-16.9192 18.8-18.3592.04-.1801.08-.8516-.32-1.2055-.4-.3549-.99-.2334-1.41-.1375-.6.1365-10.2 6.4761-28.77 19.0179-2.73 1.8695-5.19 2.7808-7.4 2.7328-2.44-.0522-7.12-1.377-10.61-2.509-4.27-1.3888-7.66-2.1231-7.37-4.4818.16-1.2279 1.85-2.4845 5.08-3.7689z" fill="#fff"/><path d="m2520 3.96729c-18.04 0-35.35 7.17211-48.11 19.92621-12.75 12.754-19.92 30.0705-19.92 48.1067s7.17 35.3528 19.92 48.1068c12.76 12.754 30.07 19.926 48.11 19.926s35.35-7.172 48.11-19.926c12.75-12.754 19.92-30.0706 19.92-48.1068s-7.17-35.3527-19.92-48.1067c-12.76-12.7541-30.07-19.92621-48.11-19.92621z" fill="url(#l)"/><path d="m2472.94 81.107c19.83-8.6402 33.05-14.3369 39.67-17.089 18.9-7.8589 22.82-9.2238 25.38-9.2695.56-.0096 1.82.1297 2.64.7919.69.5581.87 1.3129.96 1.8422.1.5294.21 1.7359.12 2.6778-1.03 10.7577-5.46 36.8632-7.71 48.9126-.95 5.098-2.83 6.807-4.65 6.974-3.95.364-6.95-2.61-10.78-5.118-5.98-3.926-9.37-6.369-15.18-10.199-6.72-4.4261-2.36-6.8593 1.47-10.835 1-1.0407 18.41-16.8743 18.74-18.3104.04-.1797.08-.8494-.31-1.2023-.4-.354-.99-.2328-1.41-.1371-.6.1361-10.17 6.4589-28.7 18.9674-2.71 1.8645-5.17 2.7734-7.38 2.7255-2.43-.0521-7.1-1.3734-10.57-2.5023-4.26-1.3851-7.65-2.1175-7.35-4.47.15-1.2246 1.84-2.4779 5.06-3.7588z" fill="#fff"/><path d="m2664 4.44434c-17.91 0-35.1 7.12186-47.77 19.78636-12.66 12.6646-19.79 29.8596-19.79 47.7692s7.13 35.1051 19.79 47.7691c12.67 12.665 29.86 19.786 47.77 19.786s35.1-7.121 47.77-19.786c12.66-12.664 19.79-29.8595 19.79-47.7691s-7.13-35.1046-19.79-47.7692c-12.67-12.6645-29.86-19.78636-47.77-19.78636z" fill="url(#m)"/><path d="m2620.33 77.9763c19.7-8.5796 32.83-14.2363 39.4-16.9692 18.76-7.8037 22.66-9.159 25.2-9.2044.56-.0095 1.81.1288 2.62.7864.68.5541.87 1.3036.96 1.8293.09.5256.2 1.7237.11 2.6589-1.01 10.6822-5.41 36.6046-7.65 48.5697-.95 5.062-2.81 6.759-4.62 6.925-3.92.361-6.9-2.592-10.7-5.082-5.94-3.899-9.3-6.324-15.08-10.1274-6.67-4.3953-2.34-6.8115 1.46-10.7593.99-1.0334 18.28-16.7559 18.61-18.1819.05-.1784.09-.8434-.31-1.1939-.4-.3515-.98-.2311-1.4-.1361-.59.1351-10.09 6.4135-28.49 18.8343-2.7 1.8514-5.14 2.7539-7.33 2.7064-2.41-.0517-7.05-1.3638-10.5-2.4848-4.23-1.3754-7.6-2.1027-7.3-4.4386.15-1.216 1.83-2.4605 5.02-3.7324z" fill="#fff"/><path d="m2808 5.11914c-17.73 0-34.75 7.05066-47.29 19.58876-12.54 12.538-19.59 29.5612-19.59 47.2919s7.05 34.7542 19.59 47.2922 29.56 19.588 47.29 19.588 34.75-7.05 47.29-19.588 19.59-29.5615 19.59-47.2922-7.05-34.7539-19.59-47.2919c-12.54-12.5381-29.56-19.58876-47.29-19.58876z" fill="url(#n)"/><path d="m2767.07 75.6122c19.5-8.4938 32.5-14.094 39.01-16.7996 18.57-7.7257 22.43-9.0675 24.95-9.1125.55-.0094 1.79.1275 2.59.7786.67.5486.86 1.2906.95 1.811s.2 1.7065.11 2.6324c-1.01 10.5755-5.36 36.2388-7.58 48.0839-.93 5.012-2.78 6.692-4.57 6.856-3.88.358-6.83-2.566-10.59-5.031-5.89-3.86-9.21-6.261-14.93-10.0261-6.6-4.3515-2.32-6.7435 1.44-10.6518.99-1.0231 18.1-16.5885 18.43-18.0003.04-.1766.08-.835-.31-1.1819-.39-.348-.97-.2289-1.38-.1348-.59.1337-10 6.3495-28.21 18.6461-2.67 1.8329-5.09 2.7264-7.26 2.6794-2.39-.0512-6.98-1.3502-10.39-2.46-4.19-1.3616-7.52-2.0816-7.23-4.3942.15-1.2039 1.81-2.4359 4.97-3.6952z" fill="#fff"/><path d="m2952 5.89307c-17.53 0-34.35 6.96913-46.74 19.36213-12.4 12.393-19.37 29.2193-19.37 46.7449 0 17.5255 6.97 34.3519 19.37 46.7449 12.39 12.393 29.21 19.362 46.74 19.362s34.35-6.969 46.74-19.362c12.4-12.393 19.37-29.2194 19.37-46.7449 0-17.5256-6.97-34.3519-19.37-46.7449-12.39-12.393-29.21-19.36213-46.74-19.36213z" fill="url(#o)"/><path d="m2913.24 73.8808c19.27-8.3956 32.12-13.931 38.55-16.6052 18.36-7.6364 22.17-8.9627 24.66-9.0071.55-.0093 1.77.126 2.56.7695.67.5423.85 1.2757.94 1.7901s.2 1.6867.11 2.6019c-.99 10.4532-5.3 35.8197-7.49 47.528-.92 4.954-2.75 6.615-4.52 6.777-3.83.353-6.75-2.537-10.47-4.974-5.82-3.8142-9.1-6.1879-14.75-9.9095-6.53-4.3011-2.3-6.6655 1.42-10.5286.98-1.0112 17.89-16.3966 18.22-17.7921.04-.1745.08-.8253-.31-1.1682-.39-.344-.96-.2262-1.37-.1333-.58.1323-9.88 6.2761-27.88 18.4305-2.64 1.8117-5.03 2.6949-7.17 2.6484-2.36-.0506-6.9-1.3346-10.28-2.4315-4.14-1.3459-7.43-2.0576-7.14-4.3434.15-1.19 1.79-2.4078 4.92-3.6525z" fill="#fff"/><path d="m3096 6.6665c-17.32 0-33.95 6.8876-46.2 19.1355-12.25 12.248-19.13 28.8774-19.13 46.1978 0 17.3205 6.88 33.9502 19.13 46.1982s28.88 19.135 46.2 19.135 33.95-6.887 46.2-19.135 19.13-28.8777 19.13-46.1982c0-17.3204-6.88-33.9498-19.13-46.1978-12.25-12.2479-28.88-19.1355-46.2-19.1355z" fill="url(#p)"/><path d="m3058.88 72.6685c19.05-8.2974 31.75-13.768 38.1-16.4109 18.15-7.5471 21.92-8.8578 24.37-8.9017.54-.0092 1.75.1245 2.54.7605.66.536.84 1.2608.93 1.7691.08.5084.19 1.667.1 2.5715-.98 10.3308-5.23 35.4005-7.4 46.9716-.91 4.8964-2.72 6.5374-4.46 6.6974-3.8.349-6.68-2.507-10.35-4.915-5.75-3.77-9-6.1158-14.58-9.7939-6.45-4.2508-2.27-6.5874 1.41-10.4054.96-.9993 17.67-16.2047 18-17.5838.04-.1725.08-.8157-.31-1.1546-.38-.3399-.94-.2235-1.35-.1317-.58.1307-9.76 6.2026-27.56 18.2148-2.6 1.7905-4.97 2.6633-7.08 2.6174-2.34-.05-6.82-1.3189-10.16-2.4031-4.09-1.3301-7.34-2.0335-7.06-4.2926.15-1.176 1.77-2.3795 4.86-3.6096z" fill="#fff"/><path d="m3240 7.3418c-17.14 0-33.6 6.8164-45.72 18.9378-12.12 12.1215-18.94 28.5791-18.94 45.7206 0 17.1416 6.82 33.5988 18.94 45.7208 12.12 12.121 28.58 18.938 45.72 18.938s33.6-6.817 45.72-18.938c12.12-12.122 18.94-28.5792 18.94-45.7208 0-17.1415-6.82-33.5991-18.94-45.7206-12.12-12.1214-28.58-18.9378-45.72-18.9378z" fill="url(#q)"/><path d="m3204.04 71.886c18.85-8.2116 31.42-13.6258 37.71-16.2414 17.95-7.469 21.69-8.7663 24.12-8.8097.53-.0091 1.73.1233 2.5.7527.66.5304.84 1.2477.92 1.7508.09.5031.2 1.6498.11 2.5449-.97 10.2241-5.18 35.0348-7.32 46.4864-.91 4.8453-2.69 6.4703-4.42 6.6283-3.76.346-6.61-2.481-10.25-4.864-5.69-3.7313-8.9-6.053-14.43-9.6931-6.38-4.2068-2.24-6.5193 1.4-10.2978.95-.9891 17.49-16.0373 17.81-17.4022.04-.1708.08-.8072-.3-1.1427-.38-.3364-.93-.2212-1.34-.1303-.57.1293-9.66 6.1385-27.27 18.0266-2.58 1.772-4.92 2.6358-7.01 2.5904-2.31-.0495-6.75-1.3053-10.05-2.3783-4.05-1.3164-7.27-2.0125-6.99-4.2482.15-1.1639 1.75-2.355 4.81-3.5724z" fill="#fff"/><path d="m3384 7.81885c-17.02 0-33.35 6.76605-45.38 18.79805-12.04 12.0319-18.8 28.368-18.8 45.383s6.76 33.3511 18.8 45.3831c12.03 12.032 28.36 18.798 45.38 18.798 17.01 0 33.35-6.766 45.38-18.798s18.8-28.3681 18.8-45.3831-6.77-33.3511-18.8-45.383c-12.03-12.032-28.37-18.79805-45.38-18.79805z" fill="url(#r)"/><path d="m3348.74 71.4564c18.71-8.151 31.18-13.5251 37.43-16.1215 17.82-7.4139 21.52-8.7015 23.94-8.7446.53-.0091 1.71.1223 2.48.7471.65.5265.83 1.2385.92 1.7379.08.4994.19 1.6376.1 2.5261-.96 10.1486-5.14 34.7761-7.27 46.1432-.9 4.8094-2.67 6.4224-4.38 6.5794-3.73.343-6.56-2.463-10.17-4.8285-5.65-3.7034-8.84-6.0079-14.32-9.6211-6.34-4.1758-2.23-6.4713 1.38-10.2219.94-.9817 17.37-15.9189 17.68-17.2737.04-.1695.08-.8013-.29-1.1342-.38-.3339-.93-.2196-1.33-.1294-.57.1284-9.59 6.0932-27.08 17.8935-2.56 1.759-4.88 2.6164-6.96 2.5713-2.29-.0492-6.69-1.2957-9.97-2.3607-4.02-1.3067-7.22-1.9976-6.94-4.2169.15-1.1552 1.74-2.3376 4.78-3.546z" fill="#fff"/><path d="m3528 8c-16.97 0-33.26 6.747-45.25 18.745-12 11.998-18.75 28.288-18.75 45.255s6.75 33.257 18.75 45.255c11.99 11.998 28.28 18.745 45.25 18.745s33.26-6.747 45.25-18.745c12-11.998 18.75-28.288 18.75-45.255s-6.75-33.257-18.75-45.255c-11.99-11.998-28.28-18.745-45.25-18.745z" fill="url(#s)"/><path d="m3492.97 71.3238c18.66-8.128 31.1-13.487 37.32-16.076 17.78-7.393 21.47-8.677 23.88-8.72.53-.009 1.71.122 2.48.745.65.525.82 1.235.91 1.733.08.498.19 1.633.11 2.519-.97 10.12-5.14 34.678-7.26 46.013-.89 4.7962-2.66 6.4042-4.37 6.5612-3.72.342-6.54-2.456-10.14-4.8152-5.63-3.693-8.81-5.991-14.28-9.594-6.32-4.164-2.22-6.453 1.38-10.193.94-.979 17.32-15.874 17.63-17.225.04-.169.08-.799-.29-1.131-.38-.333-.93-.219-1.33-.129-.56.128-9.56 6.076-27 17.843-2.55 1.754-4.86 2.609-6.94 2.564-2.28-.049-6.68-1.292-9.94-2.354-4.01-1.303-7.2-1.992-6.92-4.205.14-1.152 1.73-2.331 4.76-3.536z" fill="#fff"/><path d="m3672 8c-16.97 0-33.26 6.747-45.25 18.745-12 11.998-18.75 28.288-18.75 45.255s6.75 33.257 18.75 45.255c11.99 11.998 28.28 18.745 45.25 18.745s33.26-6.747 45.25-18.745c12-11.998 18.75-28.288 18.75-45.255s-6.75-33.257-18.75-45.255c-11.99-11.998-28.28-18.745-45.25-18.745z" fill="url(#t)"/><path d="m3636.97 71.3238c18.66-8.128 31.1-13.487 37.32-16.076 17.78-7.393 21.47-8.677 23.88-8.72.53-.009 1.71.122 2.48.745.65.525.82 1.235.91 1.733.08.498.19 1.633.11 2.519-.97 10.12-5.14 34.678-7.26 46.013-.89 4.7962-2.66 6.4042-4.37 6.5612-3.72.342-6.54-2.456-10.14-4.8152-5.63-3.693-8.81-5.991-14.28-9.594-6.32-4.164-2.22-6.453 1.38-10.193.94-.979 17.32-15.874 17.63-17.225.04-.169.08-.799-.29-1.131-.38-.333-.93-.219-1.33-.129-.56.128-9.56 6.076-27 17.843-2.55 1.754-4.86 2.609-6.94 2.564-2.28-.049-6.68-1.292-9.94-2.354-4.01-1.303-7.2-1.992-6.92-4.205.14-1.152 1.73-2.331 4.76-3.536z" fill="#fff"/><path d="m3816 8c-16.97 0-33.26 6.747-45.25 18.745-12 11.998-18.75 28.288-18.75 45.255s6.75 33.257 18.75 45.255c11.99 11.998 28.28 18.745 45.25 18.745s33.26-6.747 45.25-18.745c12-11.998 18.75-28.288 18.75-45.255s-6.75-33.257-18.75-45.255c-11.99-11.998-28.28-18.745-45.25-18.745z" fill="url(#u)"/><path d="m3780.97 71.3238c18.66-8.128 31.1-13.487 37.32-16.076 17.78-7.393 21.47-8.677 23.88-8.72.53-.009 1.71.122 2.48.745.65.525.82 1.235.91 1.733.08.498.19 1.633.11 2.519-.97 10.12-5.14 34.678-7.26 46.013-.89 4.7962-2.66 6.4042-4.37 6.5612-3.72.342-6.54-2.456-10.14-4.8152-5.63-3.693-8.81-5.991-14.28-9.594-6.32-4.164-2.22-6.453 1.38-10.193.94-.979 17.32-15.874 17.63-17.225.04-.169.08-.799-.29-1.131-.38-.333-.93-.219-1.33-.129-.56.128-9.56 6.076-27 17.843-2.55 1.754-4.86 2.609-6.94 2.564-2.28-.049-6.68-1.292-9.94-2.354-4.01-1.303-7.2-1.992-6.92-4.205.14-1.152 1.73-2.331 4.76-3.536z" fill="#fff"/><path d="m3960 8c-16.97 0-33.26 6.747-45.25 18.745-12 11.998-18.75 28.288-18.75 45.255s6.75 33.257 18.75 45.255c11.99 11.998 28.28 18.745 45.25 18.745s33.26-6.747 45.25-18.745c12-11.998 18.75-28.288 18.75-45.255s-6.75-33.257-18.75-45.255c-11.99-11.998-28.28-18.745-45.25-18.745z" fill="url(#v)"/><path d="m3924.97 71.3238c18.66-8.128 31.1-13.487 37.32-16.076 17.78-7.393 21.47-8.677 23.88-8.72.53-.009 1.71.122 2.48.745.65.525.82 1.235.91 1.733.08.498.19 1.633.11 2.519-.97 10.12-5.14 34.678-7.26 46.013-.89 4.7962-2.66 6.4042-4.37 6.5612-3.72.342-6.54-2.456-10.14-4.8152-5.63-3.693-8.81-5.991-14.28-9.594-6.32-4.164-2.22-6.453 1.38-10.193.94-.979 17.32-15.874 17.63-17.225.04-.169.08-.799-.29-1.131-.38-.333-.93-.219-1.33-.129-.56.128-9.56 6.076-27 17.843-2.55 1.754-4.86 2.609-6.94 2.564-2.28-.049-6.68-1.292-9.94-2.354-4.01-1.303-7.2-1.992-6.92-4.205.14-1.152 1.73-2.331 4.76-3.536z" fill="#fff"/><path d="m4104 8c-16.97 0-33.26 6.747-45.25 18.745-12 11.998-18.75 28.288-18.75 45.255s6.75 33.257 18.75 45.255c11.99 11.998 28.28 18.745 45.25 18.745s33.26-6.747 45.25-18.745c12-11.998 18.75-28.288 18.75-45.255s-6.75-33.257-18.75-45.255c-11.99-11.998-28.28-18.745-45.25-18.745z" fill="url(#w)"/><path d="m4068.97 71.3238c18.66-8.128 31.1-13.487 37.32-16.076 17.78-7.393 21.47-8.677 23.88-8.72.53-.009 1.71.122 2.48.745.65.525.82 1.235.91 1.733.08.498.19 1.633.11 2.519-.97 10.12-5.14 34.678-7.26 46.013-.89 4.7962-2.66 6.4042-4.37 6.5612-3.72.342-6.54-2.456-10.14-4.8152-5.63-3.693-8.81-5.991-14.28-9.594-6.32-4.164-2.22-6.453 1.38-10.193.94-.979 17.32-15.874 17.63-17.225.04-.169.08-.799-.29-1.131-.38-.333-.93-.219-1.33-.129-.56.128-9.56 6.076-27 17.843-2.55 1.754-4.86 2.609-6.94 2.564-2.28-.049-6.68-1.292-9.94-2.354-4.01-1.303-7.2-1.992-6.92-4.205.14-1.152 1.73-2.331 4.76-3.536z" fill="#fff"/><path d="m4248 8c-16.97 0-33.26 6.747-45.25 18.745-12 11.998-18.75 28.288-18.75 45.255s6.75 33.257 18.75 45.255c11.99 11.998 28.28 18.745 45.25 18.745s33.26-6.747 45.25-18.745c12-11.998 18.75-28.288 18.75-45.255s-6.75-33.257-18.75-45.255c-11.99-11.998-28.28-18.745-45.25-18.745z" fill="url(#x)"/><path d="m4212.97 71.3238c18.66-8.128 31.1-13.487 37.32-16.076 17.78-7.393 21.47-8.677 23.88-8.72.53-.009 1.71.122 2.48.745.64.525.82 1.235.91 1.733.08.498.19 1.633.1 2.519-.96 10.12-5.13 34.678-7.25 46.013-.89 4.7962-2.66 6.4042-4.37 6.5612-3.72.342-6.54-2.456-10.14-4.8152-5.63-3.693-8.81-5.991-14.28-9.594-6.32-4.164-2.22-6.453 1.38-10.193.94-.979 17.32-15.874 17.63-17.225.04-.169.08-.799-.3-1.131-.37-.333-.92-.219-1.32-.129-.57.128-9.56 6.076-27 17.843-2.55 1.754-4.86 2.609-6.94 2.564-2.28-.049-6.68-1.292-9.95-2.354-4-1.303-7.19-1.992-6.91-4.205.14-1.152 1.73-2.331 4.76-3.536z" fill="#fff"/><path d="m4392 8c-16.97 0-33.26 6.747-45.25 18.745-12 11.998-18.75 28.288-18.75 45.255s6.75 33.257 18.75 45.255c11.99 11.998 28.28 18.745 45.25 18.745s33.26-6.747 45.25-18.745c12-11.998 18.75-28.288 18.75-45.255s-6.75-33.257-18.75-45.255c-11.99-11.998-28.28-18.745-45.25-18.745z" fill="url(#y)"/><path d="m4356.97 71.3238c18.66-8.128 31.1-13.487 37.32-16.076 17.78-7.393 21.47-8.677 23.88-8.72.53-.009 1.71.122 2.48.745.64.525.82 1.235.91 1.733.08.498.19 1.633.1 2.519-.96 10.12-5.13 34.678-7.25 46.013-.89 4.7962-2.66 6.4042-4.37 6.5612-3.72.342-6.54-2.456-10.14-4.8152-5.63-3.693-8.81-5.991-14.28-9.594-6.32-4.164-2.22-6.453 1.38-10.193.94-.979 17.32-15.874 17.63-17.225.04-.169.08-.799-.3-1.131-.37-.333-.92-.219-1.32-.129-.57.128-9.56 6.076-27 17.843-2.55 1.754-4.86 2.609-6.94 2.564-2.28-.049-6.68-1.292-9.95-2.354-4-1.303-7.19-1.992-6.91-4.205.14-1.152 1.73-2.331 4.76-3.536z" fill="#fff"/></svg>