<svg height="27" viewBox="0 0 22 27" width="22" xmlns="http://www.w3.org/2000/svg"><path d="m19.35 11c.75 0 1.35.67 1.35 1.5v6c0 .83-.6 1.5-1.35 1.5s-1.35-.67-1.35-1.5v-6c0-.83.6-1.5 1.35-1.5zm-16.7 0c.75 0 1.35.67 1.35 1.5v6c0 .83-.6 1.5-1.35 1.5s-1.35-.67-1.35-1.5v-6c0-.83.6-1.5 1.35-1.5zm13.35 0c.55 0 1 .95 1 1.5v7c0 .83-.67 1.5-1.5 1.5h-.5v3c0 .83-.67 1.5-1.5 1.5s-1.5-.67-1.5-1.5v-3h-2v3c0 .83-.67 1.5-1.5 1.5s-1.5-.67-1.5-1.5v-3h-.5c-.83 0-1.5-.67-1.5-1.5v-7c0-.55.45-1.5 1-1.5zm-.55-9.54c.28.2.37.57.2.87l-.03.06-1.2 1.68c1.56 1.02 2.58 3.2 2.58 5.05 0 .31-.31.73-1.13.72h-9.85c-.68-.24-1.02-.48-1.02-.72 0-1.84 1-4 2.54-5.02l-1.22-1.71c-.22-.3-.14-.72.16-.93.29-.19.68-.14.9.11l.04.06 1.32 1.85c.7-.26 1.46-.41 2.26-.41.78 0 1.52.14 2.2.39l1.31-1.83c.21-.3.63-.38.94-.17zm-6.9 4.54c-.46 0-.82.36-.82.8 0 .43.36.79.82.79.45 0 .81-.36.81-.79 0-.44-.36-.8-.81-.8zm4.9 0c-.45 0-.81.36-.81.8 0 .43.36.79.81.79.46 0 .82-.36.82-.79 0-.44-.36-.8-.82-.8z" fill="#1086d7" fill-rule="evenodd"/></svg>